# xmcd
#
# Track frame offsets: 
#        150
#        13588
#        29716
#        42483
#        55839
#        71867
#        84267
#        101198
#        116316
#        132019
#        146738
#
# Disc length: 2090 seconds
#
# Revision: 0
# Processed by: cddbd v1.5.2PL0 Copyright (c) Steve Scherf et al.
# Submitted via: ExactAudioCopy v0.99pb2
#
DISCID=9a08280b
DTITLE=Dion - Wonder Where I'm Bound
DYEAR=1969
DGENRE=Oldies
TTITLE0=I Can't Help But Wonder Where I'm Bound
TTITLE1=It's All Over Now, Baby Blue
TTITLE2=A Sunday Kind of Love
TTITLE3=Knowing I Won't Go Back There
TTITLE4=900 Miles
TTITLE5=Now
TTITLE6=Southern Train
TTITLE7=The Seventh Son
TTITLE8=Farewell
TTITLE9=Wake Up Baby
TTITLE10=Baby, Please Don't Go
EXTD=
EXTT0=
EXTT1=
EXTT2=
EXTT3=
EXTT4=
EXTT5=
EXTT6=
EXTT7=
EXTT8=
EXTT9=
EXTT10=
PLAYORDER=
